<?xml version="1.0" encoding="utf-8"?>
<!-- Generator: Adobe Illustrator 19.2.1, SVG Export Plug-In . SVG Version: 6.00 Build 0)  -->
<svg version="1.1" id="Layer_2" xmlns="http://www.w3.org/2000/svg" xmlns:xlink="http://www.w3.org/1999/xlink" x="0px" y="0px"
	 viewBox="0 0 164.7 65.4" style="enable-background:new 0 0 164.7 65.4;" xml:space="preserve">
<style type="text/css">
	.st0{fill-rule:evenodd;clip-rule:evenodd;fill:#C92027;}
	.st1{fill:#C92027;}
	.st2{fill:#292B31;}
</style>
<g>
	<g>
		<g>
			<g>
				<path class="st0" d="M24.6,16.1c-4.4-1.3-9.2-1.8-13.6-0.3c-3.7,1.2-6.9,3.8-8.6,7.4c-1.8,4-1.9,8.9-0.3,13
					c1.4,3.7,4.4,6.4,8.1,7.7c2.1,0.8,4.3,1.1,6.6,1c2.6-0.1,5.5-0.4,7.9-1.6v-7.6c-4,1.5-10,1.8-12.7-2.2c-1.3-1.9-1.3-4.5-0.4-6.5
					c0.8-1.9,2.6-3.1,4.5-3.6c2.9-0.8,5.8-0.1,8.6,0.7V16.1z"/>
				<path class="st0" d="M113.4,44.8c3.8,0,6.5-1.4,8.5-3.6v3h9.8V27.6c0-2.6-0.2-5.5-1.7-7.8c-1.2-1.9-3.2-3.2-5.3-3.9
					c-6-2.1-12.8-0.6-18.6,1.3v7.3c3.4-1.3,7.4-2,11.1-1.7c2.7,0.2,4.8,1.7,4.8,4.6v0.5c-6.8-2.4-18.2-1.4-18.2,7.9v0.1
					C103.8,41.6,108,44.8,113.4,44.8z M117.1,38.5c-2.1,0-3.6-1.2-3.6-3.1v-0.1c0-4.4,5.9-3.8,8.6-2.6
					C122.1,36.2,120,38.5,117.1,38.5z"/>
				<path class="st0" d="M73.4,15.8H83v4.3l0.4-0.5c2.8-3.6,7-5.5,11.6-4.2c3.8,1.1,5.9,4.4,6.3,8.3c0.2,1.8,0.1,3.7,0.1,5.5
					c0,3,0,6,0,9c0,2,0,4,0,6h-9.7c0-5.2,0.1-10.4,0-15.5c0-2.3-1-4.6-3.6-5c-2.4-0.4-4.4,1-5,3.3C83,28,83,29.1,83,30.2
					c0,1.6,0,3.2,0,4.8c0,3.1,0,6.1,0,9.2h-9.7V15.8z"/>
				<g>
					<g>
						<path class="st0" d="M70.4,40.6c-3.1,2.1-6.5,3.7-10.3,4.1c-4,0.4-8.1-0.5-11.3-2.8c-4.4,2-9.5,3.6-14.3,2.1
							c-3.6-1.1-5.4-4.3-5.9-7.8c-0.2-1.7-0.1-3.5-0.1-5.3c0-2.9,0-5.8,0-8.8c0-2,0-4.1,0-6.1h9c0,4.5,0.1,9.1,0.2,13.6
							c0.1,2.1-0.1,4.7,1.2,6.4c1.3,1.8,3.8,1.4,5.7,0.9c-4-8.3,0.4-19.4,9.3-22.2c3.7-1.2,8.6-1,11.6,1.7c2.4,2.1,3.1,5.4,2.4,8.4
							c-0.6,2.3-1.9,4.2-3.4,5.9c-2,2.3-4.4,4.2-6.9,6c3.4,2.5,9,0.7,12.8-1.7V40.6z M60.1,28.2c1.1-1.4,2.4-3.9,0.7-5.4
							c-1.1-1-2.9-0.8-4.1-0.1c-3.8,2.1-4.1,6.9-2.2,10.4C56.8,31.5,58.7,29.9,60.1,28.2C63.4,24,58.7,29.9,60.1,28.2z"/>
					</g>
					<path class="st0" d="M38.5,6.7c0,2.9-2.4,5.3-5.3,5.3c-2.9,0-5.3-2.4-5.3-5.3c0-2.9,2.4-5.3,5.3-5.3C36,1.4,38.5,3.8,38.5,6.7z
						"/>
				</g>
			</g>
			<g>
				<path class="st1" d="M136.7,40.6c2.3,0,2.3,3.5,0,3.5C134.4,44.1,134.4,40.6,136.7,40.6z M136.7,43.9c2,0,1.9-3.2-0.1-3
					C134.7,41,134.8,43.9,136.7,43.9z M136,41.4h0.7c0.8,0,1,1.1,0.2,1.1c0.2,0.3,0.4,0.6,0.6,0.9h-0.3l-0.6-0.9h-0.4v0.9H136V41.4z
					 M136.3,42.3h0.3c0.4,0,0.8-0.2,0.4-0.6c-0.1-0.1-0.6-0.1-0.7-0.1V42.3z"/>
			</g>
		</g>
	</g>
	<g>
		<path class="st2" d="M28.6,53h6v1h-4.8V57h4.6V58h-4.6v3.2h5.1l-0.2,1h-6.1V53z"/>
		<path class="st2" d="M38.1,58.7l-2.3-3.2h1.3l1.6,2.4l1.7-2.4h1.2l-2.2,3.2l2.4,3.6h-1.3l-1.8-2.7l-1.9,2.7h-1.2L38.1,58.7z"/>
		<path class="st2" d="M43,55.6h1.1v1c0.9-1.2,2.5-1.6,3.8-0.8c1.1,0.7,1.4,2.1,1.3,3.3c0,1.3-0.5,2.6-1.7,3.2
			c-1.2,0.5-2.6,0.2-3.4-0.8v3.4H43V55.6z M44.1,59.1c0,1.2,0.6,2.5,2,2.4c1.4,0,1.9-1.3,1.9-2.5c0-1.2-0.4-2.7-1.8-2.8
			c-1.4,0-2.1,1.1-2.1,2.4V59.1z"/>
		<path class="st2" d="M56.5,60.4c-0.3,1.8-2.1,2.3-3.7,2c-1.8-0.4-2.4-2-2.4-3.6c0.1-1.9,1.2-3.4,3.2-3.4c1.9,0,3,1.5,3,3.3v0.6h-5
			c0,1,0.5,2.1,1.6,2.3c1,0.2,2-0.1,2.2-1.1H56.5z M55.5,58.3c0-1.2-0.6-2.1-1.8-2.1c-1.3,0-1.9,1-2,2.1H55.5z"/>
		<path class="st2" d="M58.1,55.6h1.1v1c0.6-0.9,1.5-1.3,2.6-1.1l-0.1,1.1c-1.2-0.2-2.4,0.5-2.4,1.7v4h-1.1V55.6z"/>
		<path class="st2" d="M62.9,53h1.2v1.3h-1.2V53z M62.9,55.6h1.1v6.7h-1.1V55.6z"/>
		<path class="st2" d="M71.6,60.4c-0.3,1.8-2.1,2.3-3.7,2c-1.8-0.4-2.4-2-2.4-3.6c0.1-1.9,1.2-3.4,3.2-3.4c1.9,0,3,1.5,3,3.3v0.6h-5
			c0,1,0.5,2.1,1.6,2.3c1,0.2,2-0.1,2.2-1.1H71.6z M70.6,58.3c0-1.2-0.6-2.1-1.8-2.1c-1.3,0-1.9,1-2,2.1H70.6z"/>
		<path class="st2" d="M73.2,55.6h1.1v1c0.7-1,1.9-1.5,3.1-1.2c1.1,0.3,1.5,1.3,1.5,2.4v4.5h-1.1V58c0-1-0.4-1.8-1.6-1.7
			c-1,0.1-1.9,0.9-1.9,2v4h-1.1V55.6z"/>
		<path class="st2" d="M86.4,60c-0.2,1.7-1.5,2.6-3.2,2.5c-1.8-0.1-2.8-1.5-2.9-3.2c-0.1-1.7,0.7-3.5,2.5-3.8
			c1.6-0.3,3.1,0.5,3.4,2.2l-1.1,0.2c-0.2-1.1-1.1-1.8-2.3-1.4c-1.1,0.4-1.4,1.7-1.3,2.7c0,1.1,0.4,2.2,1.6,2.4
			c1.1,0.2,1.9-0.4,2.1-1.5H86.4z"/>
		<path class="st2" d="M93.6,60.4c-0.3,1.8-2.1,2.3-3.7,2c-1.8-0.4-2.4-2-2.4-3.6c0.1-1.9,1.2-3.4,3.2-3.4c1.9,0,3,1.5,3,3.3v0.6h-5
			c0,1,0.5,2.1,1.6,2.3c1,0.2,2-0.1,2.2-1.1H93.6z M92.6,58.3c0-1.2-0.6-2.1-1.8-2.1c-1.3,0-1.9,1-2,2.1H92.6z"/>
		<path class="st2" d="M95.1,60.8h1.3v1.5h-1.3V60.8z"/>
		<path class="st2" d="M105,62.5c-5.8,0-5.7-9.9,0.2-9.8C110.7,52.9,110.6,62.5,105,62.5z M105,61.5c4.2,0,4-8-0.3-7.7
			C100.8,54.1,101,61.5,105,61.5z"/>
		<path class="st2" d="M110.8,55.6h1.1v4.2c0,0.6,0.1,1.3,0.7,1.6c0.6,0.3,1.5,0,2-0.4c0.4-0.4,0.7-0.8,0.7-1.4v-4h1.1v6.7h-1.1v-1
			c-0.7,0.9-1.8,1.5-3,1.2c-1.1-0.3-1.4-1.3-1.4-2.4V55.6z"/>
		<path class="st2" d="M118.6,56.4h-1v-0.9h1v-1.8h1.1v1.8h1.8v0.9h-1.8v3.9c0,1.1,0.9,1.3,1.8,0.9l0.2,0.9c-0.7,0.2-1.7,0.4-2.3,0
			c-0.7-0.4-0.8-1.3-0.8-2.1V56.4z"/>
		<path class="st2" d="M128.4,60c-0.2,1.7-1.5,2.6-3.2,2.5c-1.8-0.1-2.8-1.5-2.9-3.2c-0.1-1.7,0.7-3.5,2.5-3.8
			c1.6-0.3,3.1,0.5,3.4,2.2l-1.1,0.2c-0.2-1.1-1.1-1.8-2.3-1.4c-1.1,0.4-1.4,1.7-1.3,2.7c0,1.1,0.4,2.2,1.6,2.4
			c1.1,0.2,1.9-0.4,2.1-1.5H128.4z"/>
		<path class="st2" d="M132.8,62.5c-4.2,0-4.3-6.9-0.1-7.1C137.1,55.1,137.2,62.5,132.8,62.5z M132.8,61.5c2.8,0,2.8-5.3,0-5.3
			C130,56.3,130,61.5,132.8,61.5z"/>
		<path class="st2" d="M137.6,55.6h1.1v1c1-1.3,3.3-1.9,4,0c1.4-1.9,4.4-1.6,4.4,1v4.7h-1.1v-4.4c0-1-0.4-1.7-1.5-1.5
			c-0.8,0.1-1.6,0.8-1.6,1.7v4.2h-1.1v-4.4c0-1.5-1.3-2.1-2.4-1c-0.4,0.4-0.6,0.8-0.6,1.4v4h-1.1V55.6z"/>
		<path class="st2" d="M154.5,60.4c-0.3,1.8-2.1,2.3-3.7,2c-1.8-0.4-2.4-2-2.4-3.6c0.1-1.9,1.2-3.4,3.2-3.4c1.9,0,3,1.5,3,3.3v0.6
			h-5c0,1,0.5,2.1,1.6,2.3c1,0.2,2-0.1,2.2-1.1H154.5z M153.5,58.3c0-1.2-0.6-2.1-1.8-2.1c-1.3,0-1.9,1-2,2.1H153.5z"/>
		<path class="st2" d="M156.8,60.3c0.2,1.2,1.8,1.6,2.8,1.1c1.3-0.6,0.5-1.8-0.6-2l-0.9-0.1c-0.8-0.1-1.8-0.4-2.2-1.2
			c-0.4-0.9,0-1.8,0.7-2.3c1.5-1,4.1-0.5,4.5,1.4l-1,0.2c-0.4-1.1-1.9-1.5-2.9-0.9c-1.1,0.7-0.1,1.6,0.8,1.8l1,0.2
			c0.8,0.1,1.7,0.4,2.1,1.3c0.3,0.9,0,1.9-0.8,2.4c-1.6,0.9-4.6,0.4-4.8-1.8H156.8z"/>
		<path class="st2" d="M162.9,60.8h1.3v1.5h-1.3V60.8z"/>
	</g>
</g>
</svg>
